<svg id="Capa_1" enable-background="new 0 0 510 510" height="512" viewBox="0 0 510 510" width="512" xmlns="http://www.w3.org/2000/svg"><g><path d="m300 220.002c0 10.41-1.48 21.78-10.65 35h-40.57l10.45-10.45c10.77-11.46 10.77-18.11 10.77-24.55 0-12.34-9.58-20-25-20-11.4 0-20 8.75-20 20.35h-30c0-28.24 21.96-50.35 50-50.35 31.87 0 55 21.02 55 50z" fill="#405580"/><path d="m300 310.002v30h-105v-30l-.61-.61 54.39-54.39h40.57c-2.3 3.31-5.08 6.74-8.44 10.3l-.3.3-44.4 44.4z" fill="#283d66"/><path d="m465 240.002v15h-126.09c-5.57-6.86-8.91-15.55-8.91-25v-60h30v60c0 5.6 4.6 10 10.48 10h34.52v-70h30v70z" fill="#405580"/><path d="m465 255.002v15h-30v70h-30v-70h-34.52c-12.75 0-24.15-5.86-31.57-15z" fill="#283d66"/><path d="m400 59.998v30h80v80h30v-110z" fill="#9cf"/><path d="m480 419.998h-80v30h110v-110h-30z" fill="#80aaff"/><path d="m165 399.976v69.999 30.001l60-.014v-130l-60 .014z" fill="#c50048"/><path d="m165 10.002v130.02h-15c-11.03 0-20 8.98-20 20v94.98h-130v-95c0-40.07 15.6-77.73 43.94-106.06 12.38-12.38 26.54-22.52 41.91-29.98s31.95-12.26 49.15-13.96z" fill="#ff7c48"/><g fill="#ff415b"><path d="m165 369.972v130.021l-30 .01c-34.4-3.38-66.3-19.19-91.06-43.95-28.34-28.321-43.94-65.991-43.94-106.051v-95h130v94.97c0 11.021 8.97 20 20 20z"/><path d="m165 9.998v30 70 30h60v-130z"/></g></g></svg>