<?xml version="1.0" encoding="iso-8859-1"?>
<!-- Generator: Adobe Illustrator 19.0.0, SVG Export Plug-In . SVG Version: 6.00 Build 0)  -->
<svg version="1.1" id="Capa_1" xmlns="http://www.w3.org/2000/svg" xmlns:xlink="http://www.w3.org/1999/xlink" x="0px" y="0px"
	 viewBox="0 0 512 512" style="enable-background:new 0 0 512 512;" xml:space="preserve">
<rect y="317.793" style="fill:#3F51B4;" width="52.966" height="194.207"/>
<path style="fill:#EFC7B0;" d="M52.966,494.345h194.931c5.394,0,10.778-0.415,16.11-1.236l72.474-11.149
	c22.272-3.425,42.867-13.859,58.801-29.793l107.573-107.573c5.853-5.853,9.145-13.789,9.145-22.069l0,0
	c0-17.24-13.974-31.214-31.214-31.214h-0.724c-7.857,0-15.413,2.957-21.186,8.28l-95.647,88.276
	c-6.515,6.02-15.06,9.366-23.932,9.375H205.18c-7.027,0-13.762-2.79-18.723-7.759l0,0c-10.346-10.337-10.346-27.109,0-37.455l0,0
	l0,0c4.97-4.961,11.705-7.751,18.723-7.751h92.813c7.027,0,13.762-2.79,18.723-7.759l0,0c10.346-10.337,10.346-27.109,0-37.455l0,0
	l0,0c-4.97-4.961-11.705-7.751-18.723-7.751H153.971c-19.853,0-39.309,5.579-56.143,16.102l-44.862,28.036V494.345z"/>
<polygon style="fill:#FEC007;" points="220.69,88.276 256,0 291.31,88.276 379.586,88.276 308.966,141.241 335.448,238.345 
	256,167.724 167.724,238.345 203.034,141.241 132.414,88.276 "/>
<g>
	
		<rect x="167.731" y="10.348" transform="matrix(-0.7071 0.7071 -0.7071 -0.7071 326.3769 -64.5557)" style="fill:#4DAAF5;" width="17.655" height="49.937"/>
	
		<rect x="310.472" y="26.48" transform="matrix(-0.7071 0.7071 -0.7071 -0.7071 597.5991 -176.9189)" style="fill:#4DAAF5;" width="49.937" height="17.655"/>
	<rect x="105.931" y="150.069" style="fill:#4DAAF5;" width="52.966" height="17.655"/>
	<rect x="353.103" y="150.069" style="fill:#4DAAF5;" width="52.966" height="17.655"/>
	<rect x="247.172" y="203.034" style="fill:#4DAAF5;" width="17.655" height="52.966"/>
</g>
<g>
</g>
<g>
</g>
<g>
</g>
<g>
</g>
<g>
</g>
<g>
</g>
<g>
</g>
<g>
</g>
<g>
</g>
<g>
</g>
<g>
</g>
<g>
</g>
<g>
</g>
<g>
</g>
<g>
</g>
</svg>
